<?xml version="1.0" standalone="no"?>
<!DOCTYPE svg PUBLIC "-//W3C//DTD SVG 20010904//EN"
 "http://www.w3.org/TR/2001/REC-SVG-20010904/DTD/svg10.dtd">
<svg version="1.0" xmlns="http://www.w3.org/2000/svg"
 width="618.000000pt" height="234.000000pt" viewBox="0 0 618.000000 234.000000"
 preserveAspectRatio="xMidYMid meet">

<g transform="translate(0.000000,234.000000) scale(0.100000,-0.100000)"
fill="#000000" stroke="none">
<path d="M0 1170 l0 -1170 447 0 447 0 -55 27 c-66 33 -175 140 -211 209 -77
144 -77 344 0 488 34 65 143 174 208 208 150 80 346 77 500 -9 189 -105 294
-353 238 -566 -38 -148 -150 -286 -275 -341 -30 -13 172 -14 1730 -15 l1765
-1 -54 27 c-160 80 -271 280 -257 464 12 158 90 293 219 379 92 61 178 84 297
78 106 -6 172 -27 249 -80 114 -79 185 -188 208 -321 37 -212 -59 -415 -246
-516 l-55 -30 513 -1 512 0 0 1170 0 1170 -3090 0 -3090 0 0 -1170z m4400
1040 c246 -12 644 -43 835 -66 72 -8 161 -18 198 -21 37 -3 70 -10 73 -14 2
-5 -13 -17 -36 -29 -22 -11 -40 -25 -40 -30 0 -5 19 -33 43 -62 23 -29 92
-114 151 -188 60 -74 130 -157 156 -185 58 -61 66 -75 86 -162 11 -48 16 -111
15 -214 l-1 -145 34 -75 c89 -194 112 -350 65 -444 -31 -62 -97 -119 -162
-141 -39 -13 -80 -17 -167 -15 -63 1 -117 4 -119 7 -3 2 -6 28 -8 57 -6 102
-63 240 -139 337 -53 67 -92 98 -170 138 -194 97 -464 58 -622 -91 -105 -100
-152 -219 -160 -403 l-5 -120 -561 -12 c-1461 -31 -2227 -45 -2231 -41 -2 3 2
27 10 54 53 175 -46 451 -212 587 -96 80 -191 113 -323 111 -369 -5 -616 -248
-598 -590 l5 -93 -100 0 c-93 0 -104 2 -139 27 -42 28 -91 91 -129 163 -21 40
-24 58 -24 165 0 100 4 132 24 190 25 73 128 284 159 322 13 18 46 29 151 53
143 32 685 142 1036 210 162 32 216 46 240 64 279 213 734 430 1155 551 197
57 383 87 635 104 178 12 630 12 875 1z"/>
<path d="M3667 2099 c-71 -4 -130 -9 -132 -11 -1 -2 -15 -118 -29 -258 -15
-140 -30 -275 -33 -299 l-6 -43 39 5 c21 4 75 9 119 12 44 2 233 16 420 30
187 14 416 31 509 38 93 7 171 17 173 22 5 17 -165 225 -281 342 -127 128
-164 149 -288 163 -94 11 -302 11 -491 -1z"/>
<path d="M3205 2055 c-351 -42 -780 -232 -1197 -529 -98 -69 -118 -90 -75 -82
12 3 307 13 655 22 347 10 637 21 643 25 6 3 19 69 30 145 10 77 27 202 38
279 10 77 16 143 12 146 -3 3 -51 0 -106 -6z"/>
<path d="M4736 2031 c10 -10 220 -149 309 -206 127 -81 273 -159 340 -182 38
-13 111 -28 160 -33 110 -12 107 -12 124 -1 11 7 -16 47 -122 178 -75 92 -154
187 -176 211 l-39 42 -303 0 c-173 0 -299 -4 -293 -9z"/>
<path d="M4565 1424 c-80 -20 -98 -52 -45 -79 60 -31 220 -10 220 29 0 9 -10
22 -23 30 -24 16 -118 28 -152 20z"/>
<path d="M5695 1356 c-182 -57 -179 -147 8 -225 122 -50 117 -55 117 104 l0
135 -42 -1 c-24 0 -61 -6 -83 -13z"/>
<path d="M3101 1322 c-45 -22 -49 -37 -15 -59 21 -13 48 -18 104 -18 78 0 136
22 128 48 -8 23 -73 47 -128 47 -33 0 -69 -7 -89 -18z"/>
<path d="M445 1220 c-33 -3 -70 -12 -81 -18 -20 -10 -114 -176 -114 -200 0 -5
15 -12 33 -15 17 -3 46 -9 62 -12 29 -6 36 -1 130 107 54 62 105 121 113 131
14 16 12 17 -34 16 -27 -1 -76 -5 -109 -9z"/>
<path d="M182 822 c-19 -61 -15 -119 8 -142 11 -11 26 -20 33 -20 16 0 93 168
81 180 -5 5 -32 12 -60 15 l-50 7 -12 -40z"/>
<path d="M965 876 c-51 -16 -118 -51 -133 -68 -9 -11 5 -31 72 -97 77 -77 84
-81 109 -72 l27 11 0 120 c0 134 3 131 -75 106z"/>
<path d="M1120 771 c0 -113 1 -121 21 -132 20 -10 30 -3 107 74 46 47 82 89
79 94 -10 16 -129 71 -169 78 l-38 7 0 -121z"/>
<path d="M4839 831 c-51 -20 -109 -52 -109 -61 0 -3 35 -41 79 -84 109 -108
115 -105 119 47 3 116 2 117 -20 117 -13 -1 -44 -9 -69 -19z"/>
<path d="M5010 737 c0 -110 1 -114 24 -125 21 -9 30 -3 106 73 l82 82 -29 21
c-39 27 -127 62 -158 62 l-25 0 0 -113z"/>
<path d="M1310 655 c-79 -79 -83 -86 -72 -110 11 -25 13 -25 126 -25 63 0 117
3 119 8 13 21 -54 189 -82 206 -4 3 -45 -33 -91 -79z"/>
<path d="M726 692 c-23 -37 -56 -130 -56 -159 0 -11 25 -13 121 -11 115 3 122
4 130 25 7 19 -3 33 -72 100 -44 43 -84 79 -89 81 -5 2 -20 -14 -34 -36z"/>
<path d="M4640 670 c-23 -32 -60 -128 -60 -155 0 -13 19 -15 115 -15 106 0
115 1 126 21 10 19 3 29 -67 100 -43 44 -82 79 -86 79 -3 0 -16 -14 -28 -30z"/>
<path d="M5193 625 c-74 -76 -78 -81 -67 -109 5 -13 26 -16 124 -16 l118 0
-12 53 c-15 64 -56 141 -76 144 -8 1 -48 -32 -87 -72z"/>
<path d="M674 403 c9 -53 68 -168 86 -169 8 -1 49 35 91 80 66 70 76 84 68
104 -8 21 -13 22 -130 22 l-121 0 6 -37z"/>
<path d="M1238 415 c-11 -24 -7 -31 73 -111 l84 -85 22 28 c22 27 55 110 67
166 l6 27 -120 0 c-119 0 -121 0 -132 -25z"/>
<path d="M4580 408 c0 -27 44 -138 66 -165 l23 -28 80 80 c66 65 79 84 75 103
-6 21 -10 22 -125 22 -89 0 -119 -3 -119 -12z"/>
<path d="M5125 397 c-5 -19 7 -37 71 -100 43 -42 81 -77 85 -77 15 0 62 92 75
146 l12 54 -119 0 c-116 0 -119 -1 -124 -23z"/>
<path d="M902 247 c-79 -79 -82 -84 -65 -100 26 -22 120 -64 166 -71 l37 -7 0
120 c0 109 -2 121 -19 131 -11 5 -23 10 -28 10 -5 0 -46 -37 -91 -83z"/>
<path d="M1138 319 c-16 -9 -18 -26 -18 -130 l0 -120 38 7 c41 7 126 43 157
67 19 15 17 19 -65 101 -46 48 -87 86 -90 86 -3 0 -13 -5 -22 -11z"/>
<path d="M5033 307 c-22 -10 -23 -16 -23 -125 l0 -115 41 6 c41 5 142 51 159
72 6 8 -17 37 -73 92 -74 73 -84 80 -104 70z"/>
<path d="M4806 234 c-42 -42 -76 -81 -76 -85 0 -12 122 -69 163 -76 l38 -6 -3
119 c-3 114 -4 119 -25 122 -16 2 -42 -17 -97 -74z"/>
</g>
</svg>
